# xmcd
#
# Track frame offsets: 
#        150
#        17973
#        32369
#        47245
#        62837
#        79710
#        95707
#        110094
#        123304
#        139854
#        161502
#        178886
#
# Disc length: 2576 seconds
#
# Revision: 14
# Processed by: cddbd v1.5.2PL0 Copyright (c) Steve Scherf et al.
# Submitted via: ExactAudioCopyFreeDBPlugin 1.0
#
DISCID=a50a0e0c
DTITLE=Peyroux, Madeleine - Careless Love
DYEAR=2004
DGENRE=Jazz
TTITLE0=Dance Me To The End Of Love
TTITLE1=Don't Wait Too Long
TTITLE2=Don't Cry Baby
TTITLE3=You're Gonna Make Me Lonesome When You Go
TTITLE4=Between The Bars
TTITLE5=No More
TTITLE6=Lonesome Road
TTITLE7=J'ai Deux Amours
TTITLE8=Weary Blues
TTITLE9=I'll Look Around
TTITLE10=Careless Love
TTITLE11=This Is Heaven To Me
EXTD=Released: 2004  \nLabel: Rounder  \nCredits:\n  Dean Parks Guitar
EXTD=\n  Larry Goldings Celeste, Hammond and Pump Organ,     Piano, Wu
EXTD=rlitzer\n  Lee Thornburg Trumpet  Scott     Amendola      Percuss
EXTD=ion  \n  Madeleine Peyroux AcousticGuitar, Vocals  \n  David Pilt
EXTD=ch Bass
EXTT0=
EXTT1=
EXTT2=
EXTT3=
EXTT4=
EXTT5=
EXTT6=
EXTT7=
EXTT8=
EXTT9=
EXTT10=
EXTT11=
PLAYORDER=
